<svg id="Calque_1" data-name="Calque 1" focusable="false" xmlns="http://www.w3.org/2000/svg" height="30" fill="white" viewBox="0 0 599.69 81.93"><defs><style>.cls-1{fill:none;}</style></defs><title>cbc-radio-canada-black-noir</title><circle cx="168.22" cy="39.52" r="14.13"/><path d="M151.91,53.65a14.13,14.13,0,0,1,0-28.25Z"/><path d="M184.52,69.23V55.83h13.41A13.4,13.4,0,0,1,184.52,69.23Z"/><path d="M151.91,9.8V23.22H138.48A13.42,13.42,0,0,1,151.91,9.8"/><path d="M151.91,69.23V55.83H138.49A13.4,13.4,0,0,0,151.91,69.23Z"/><path d="M200.84,51.66V27.39a14.12,14.12,0,0,1,0,24.28Z"/><path d="M156.08,6.9h24.28a14.13,14.13,0,0,0-24.28,0Z"/><path d="M180.18,72.15H155.9a14.12,14.12,0,0,0,24.28,0Z"/><path d="M182.34,55.83a14.13,14.13,0,1,1-28.25,0Z"/><path d="M184.53,53.65a14.13,14.13,0,0,0,0-28.25Z"/><path d="M182.34,23.24a14.13,14.13,0,1,0-28.25,0Z"/><path d="M135.59,51.66V27.39a14.12,14.12,0,0,0,0,24.28Z"/><path d="M197.94,23.23H184.53V9.82a13.41,13.41,0,0,1,13.41,13.41"/><path d="M235.8,19.54h8.57c8.51,0,18.66-.28,18.66,10.72a9.06,9.06,0,0,1-8.17,9.19v.11c2.16.17,3.4,2.33,4.2,4.08l6.35,15.48h-8.85L251.8,46.77c-1.14-2.95-2.16-4.08-5.5-4.08h-2.55V59.14H235.8Zm7.94,16.9h2.61c3.91,0,8.4-.57,8.4-5.5,0-4.77-4.42-5.16-8.4-5.16h-2.61Z"/><path d="M271.75,31.46a26.14,26.14,0,0,1,10.16-2.21c8.9,0,12.59,3.69,12.59,12.31V45.3c0,2.95.06,5.16.11,7.32s.17,4.25.34,6.52h-6.69a35.44,35.44,0,0,1-.34-4.37h-.12a10.44,10.44,0,0,1-9,5c-5.16,0-10.21-3.12-10.21-8.68a8.58,8.58,0,0,1,5-8.34c2.89-1.42,6.63-1.7,9.81-1.7h4.19c0-4.71-2.09-6.3-6.58-6.3A15.28,15.28,0,0,0,272,38Zm8.91,22.8A6.45,6.45,0,0,0,286,51.65a9.7,9.7,0,0,0,1.58-6h-3.29c-3.4,0-8.45.57-8.45,5C275.83,53.18,277.93,54.26,280.66,54.26Z"/><path d="M321.43,55.85h-.11a10.85,10.85,0,0,1-9,4c-9,0-12.25-7.37-12.25-15.37s3.29-15.2,12.25-15.2a10.38,10.38,0,0,1,8.74,4.08h.11V16.59h7.61V59.14h-7.38Zm-7-1.93c5,0,6.69-5.33,6.69-9.47s-1.93-9.3-6.81-9.3-6.3,5.39-6.3,9.3S309.46,53.92,314.45,53.92Z"/><path d="M336.78,29.92h7.6V59.14h-7.6Zm0-12.59h7.6v7.26h-7.6Z"/><path d="M365.76,29.24c8.68,0,15.32,5.84,15.32,15.49,0,8.39-5.62,15.09-15.32,15.09s-15.26-6.7-15.26-15.09C350.5,35.08,357.13,29.24,365.76,29.24Zm0,24.68c5.85,0,7.38-5.22,7.38-10.1,0-4.48-2.38-8.68-7.38-8.68s-7.32,4.31-7.32,8.68C358.44,48.64,360,53.92,365.76,53.92Z"/><path d="M385.08,47V40.76H400V47Z"/><path d="M435.38,58.57a40.22,40.22,0,0,1-9,1.25c-12.82,0-21.72-6.41-21.72-19.8,0-13.56,8.28-21.16,21.72-21.16a26.11,26.11,0,0,1,9,1.64l-.57,6.69a16.33,16.33,0,0,0-8.56-2.1c-8.17,0-13.27,6.24-13.27,14.35s5,14.12,13.44,14.12A22.08,22.08,0,0,0,435,51.93Z"/><path d="M441.83,31.46A26.12,26.12,0,0,1,452,29.24c8.91,0,12.59,3.69,12.59,12.31V45.3c0,2.95.06,5.16.12,7.32s.17,4.25.34,6.52h-6.69a36.34,36.34,0,0,1-.34-4.37h-.11a10.44,10.44,0,0,1-9,5c-5.16,0-10.21-3.12-10.21-8.68a8.58,8.58,0,0,1,5-8.34c2.89-1.42,6.64-1.7,9.81-1.7h4.2c0-4.71-2.1-6.3-6.58-6.3a15.29,15.29,0,0,0-9,3.18Zm8.9,22.8a6.46,6.46,0,0,0,5.33-2.61,9.7,9.7,0,0,0,1.59-6h-3.29c-3.41,0-8.45.57-8.45,5C445.92,53.18,448,54.26,450.74,54.26Z"/><path d="M472.05,29.92h7.2v4h.11c2.39-3.35,5.62-4.65,9.59-4.65,6.92,0,9.93,4.88,9.93,11.46V59.14h-7.6V43.54c0-3.57-.06-8.39-4.93-8.39-5.5,0-6.69,6-6.69,9.7V59.14h-7.6Z"/><path d="M508,31.46a26.13,26.13,0,0,1,10.15-2.21c8.91,0,12.59,3.69,12.59,12.31V45.3c0,2.95.06,5.16.11,7.32s.17,4.25.35,6.52h-6.7a35.59,35.59,0,0,1-.34-4.37h-.11a10.44,10.44,0,0,1-9,5c-5.16,0-10.21-3.12-10.21-8.68a8.59,8.59,0,0,1,5-8.34c2.9-1.42,6.64-1.7,9.81-1.7h4.2c0-4.71-2.1-6.3-6.58-6.3a15.28,15.28,0,0,0-9,3.18Zm8.91,22.8a6.45,6.45,0,0,0,5.33-2.61,9.67,9.67,0,0,0,1.59-6h-3.29c-3.4,0-8.45.57-8.45,5C512.09,53.18,514.19,54.26,516.91,54.26Z"/><path d="M557.68,55.85h-.11a10.84,10.84,0,0,1-9,4c-9,0-12.25-7.37-12.25-15.37s3.29-15.2,12.25-15.2a10.38,10.38,0,0,1,8.73,4.08h.12V16.59h7.6V59.14h-7.37Zm-7-1.93c5,0,6.69-5.33,6.69-9.47s-1.93-9.3-6.81-9.3-6.3,5.39-6.3,9.3S545.71,53.92,550.71,53.92Z"/><path d="M574.17,31.46a26.13,26.13,0,0,1,10.15-2.21c8.91,0,12.59,3.69,12.59,12.31V45.3c0,2.95.06,5.16.11,7.32s.17,4.25.34,6.52h-6.69a35.27,35.27,0,0,1-.34-4.37h-.11a10.44,10.44,0,0,1-9,5C576,59.82,571,56.7,571,51.14a8.59,8.59,0,0,1,5-8.34c2.89-1.42,6.63-1.7,9.81-1.7H590c0-4.71-2.1-6.3-6.58-6.3a15.3,15.3,0,0,0-9,3.18Zm8.9,22.8a6.45,6.45,0,0,0,5.33-2.61,9.68,9.68,0,0,0,1.59-6h-3.29c-3.4,0-8.45.57-8.45,5C578.25,53.18,580.35,54.26,583.08,54.26Z"/><path d="M30.75,58.69a40.2,40.2,0,0,1-9,1.25C8.91,59.94,0,53.53,0,40.14,0,26.58,8.28,19,21.73,19a26.14,26.14,0,0,1,9,1.64l-.57,6.69a16.35,16.35,0,0,0-8.57-2.1c-8.17,0-13.27,6.24-13.27,14.35s5,14.13,13.44,14.13a22.08,22.08,0,0,0,8.68-1.65Z"/><path d="M36.57,19.66H50.41c5.11,0,12.76,1.47,12.76,10.15,0,4.71-3.18,8-7.88,8.85v.11c5.39.51,9.08,4.14,9.08,9,0,10-9,11.46-14,11.46H36.57ZM44.51,53h3.74c3.69,0,8.17-.91,8.17-5.5,0-5.16-4.2-6-8.17-6H44.51Zm0-17.36h3.23c3.35,0,7.49-.74,7.49-4.82,0-4.59-4-4.93-7.66-4.93H44.51Z"/><path d="M100,58.69a40.2,40.2,0,0,1-9,1.25c-12.82,0-21.73-6.41-21.73-19.8C69.29,26.58,77.57,19,91,19a26.14,26.14,0,0,1,9,1.64l-.57,6.69a16.35,16.35,0,0,0-8.57-2.1c-8.17,0-13.27,6.24-13.27,14.35S82.56,53.7,91,53.7a22.09,22.09,0,0,0,8.68-1.65Z"/><rect class="cls-1" width="662.6" height="144"/></svg>
